<svg fill="#F38F19" xmlns="http://www.w3.org/2000/svg" xmlns:xlink="http://www.w3.org/1999/xlink" version="1.1" x="0px" y="0px" viewBox="0 0 100 100" enable-background="new 0 0 100 100" xml:space="preserve"><path d="M78.166,68.123l-23.93-41.445c-0.875-1.516-2.492-2.45-4.243-2.45s-3.368,0.934-4.244,2.45l-24.1,41.744  c-0.875,1.516-0.875,3.383,0,4.9c0.875,1.516,2.493,2.449,4.244,2.449h48.201c0.006,0,0.012,0,0.014,0c2.707,0,4.9-2.193,4.9-4.9  C79.008,69.854,78.697,68.906,78.166,68.123z M47.262,42.112c0-1.513,1.226-2.738,2.738-2.738c1.512,0,2.738,1.226,2.738,2.738  v16.331c0,1.514-1.227,2.738-2.738,2.738c-1.512,0-2.738-1.225-2.738-2.738V42.112z M52.471,68.76  c-0.65,0.652-1.553,1.029-2.471,1.029c-0.917,0-1.821-0.377-2.478-1.029c-0.651-0.65-1.022-1.554-1.022-2.471  c0-0.924,0.371-1.826,1.022-2.478c0.657-0.651,1.554-1.022,2.478-1.022c0.918,0,1.82,0.371,2.471,1.022  c0.658,0.651,1.029,1.554,1.029,2.478C53.5,67.206,53.129,68.109,52.471,68.76z"></path></svg>