<svg fill="#F38F19" xmlns:dc="http://purl.org/dc/elements/1.1/" xmlns:cc="http://creativecommons.org/ns#" xmlns:rdf="http://www.w3.org/1999/02/22-rdf-syntax-ns#" xmlns:svg="http://www.w3.org/2000/svg" xmlns="http://www.w3.org/2000/svg" xmlns:sodipodi="http://sodipodi.sourceforge.net/DTD/sodipodi-0.dtd" xmlns:inkscape="http://www.inkscape.org/namespaces/inkscape" version="1.1" x="0px" y="0px" viewBox="0 0 100 100"><g transform="translate(0,-952.36218)"><path style="text-indent:0;text-transform:none;direction:ltr;block-progression:tb;baseline-shift:baseline;color:#000000;enable-background:accumulate;" d="m 50.000093,970.36215 c -2.4153,0 -4.5934,1.18859 -5.8438,3.28125 l -30.21871,50.6875 c -1.2507,2.0988 -1.25417,4.622 0,6.7188 1.05385,1.7622 3.14298,3.3184 5.5625,3.3125 l 61.00001,0 c 2.4188,0 4.5086,-1.5502 5.5625,-3.3125 1.2539,-2.0968 1.2505,-4.62 0,-6.7188 l -30.2188,-50.6875 c -1.2503,-2.09266 -3.4284,-3.28125 -5.8437,-3.28125 z m 0,6 c 0.2237,0 0.6162,0.22435 0.6875,0.34375 l 30.2187,50.6875 c 0.071,0.1194 0.071,0.4744 0,0.5938 -0.2714,0.4538 -0.1805,0.3755 -0.4062,0.375 l -61.00001,0 c -0.22492,5e-4 -0.13478,0.079 -0.40625,-0.375 -0.0714,-0.1194 -0.0711,-0.4744 0,-0.5938 l 30.21876,-50.6875 c 0.071,-0.1194 0.4638,-0.34375 0.6875,-0.34375 z m 0,12.00005 c -1.6568,0 -3,1.3432 -3,3 l 0,22 c 0,1.6569 1.3432,3 3,3 1.6569,0 3,-1.3431 3,-3 l 0,-22 c 0,-1.6568 -1.3431,-3 -3,-3 z m 0,30 c -2.2092,0 -4,1.7909 -4,4 0,2.2092 1.7908,4 4,4 2.2091,0 4,-1.7908 4,-4 0,-2.2091 -1.7909,-4 -4,-4 z" fill="#F38F19" fill-opacity="1" stroke="none" marker="none" visibility="visible" display="inline" overflow="visible"></path></g></svg>